<?xml version="1.0" encoding="utf-8"?>
<!-- Generator: Adobe Illustrator 16.0.0, SVG Export Plug-In . SVG Version: 6.00 Build 0)  -->
<!DOCTYPE svg PUBLIC "-//W3C//DTD SVG 1.1//EN" "http://www.w3.org/Graphics/SVG/1.1/DTD/svg11.dtd">
<svg version="1.1" id="Layer_1" xmlns="http://www.w3.org/2000/svg" xmlns:xlink="http://www.w3.org/1999/xlink" x="0px" y="0px"
	 width="2156px" height="800px" viewBox="0 0 2156 800" enable-background="new 0 0 2156 800" xml:space="preserve">
<g>
	<g>
		<g>
			<path d="M1595.632,366.671c0-7.927-6.416-14.342-14.342-14.342c-7.928,0-14.341,6.416-14.341,14.342
				c0,37.657,41.539,89.365,46.271,95.149c2.843,3.443,6.961,5.235,11.104,5.235c3.195,0,6.416-1.063,9.091-3.25
				c6.119-5.027,7-14.06,1.988-20.192C1620.026,424.874,1595.632,387.425,1595.632,366.671z"/>
			<path d="M1896.789,352.329c-7.925,0-14.341,6.416-14.341,14.342c0,20.685-24.396,58.177-39.772,76.957
				c-5.013,6.119-4.117,15.152,2.003,20.179c2.66,2.187,5.884,3.25,9.089,3.25c4.146,0,8.248-1.792,11.093-5.235
				c4.733-5.784,46.271-57.49,46.271-95.149C1911.132,358.744,1904.718,352.329,1896.789,352.329z"/>
			<path d="M1739.041,352.329c-7.927,0-14.341,6.416-14.341,14.342v86.044c0,7.927,6.414,14.342,14.341,14.342
				s14.342-6.415,14.342-14.342v-86.044C1753.382,358.744,1746.966,352.329,1739.041,352.329z"/>
			<path d="M1896.789,122.876c-8.689,0-17.771,1.149-27.202,2.901c-31.586-36.82-78.342-60.266-130.546-60.266
				c-52.203,0-98.962,23.445-130.546,60.265c-9.433-1.751-18.515-2.902-27.204-2.902c-86.982,0.001-157.751,70.767-157.751,157.75
				c0,59.603,33.611,113.789,86.384,140.58l-0.281,216.723c-0.014,15.645,6.062,30.35,17.113,41.413
				c11.063,11.078,25.756,17.17,41.397,17.17h341.831c32.268,0,58.512-26.245,58.512-58.512V420.994
				c52.573-26.86,86.046-80.962,86.046-140.369C2054.538,193.642,1983.773,122.876,1896.789,122.876z M1939.812,638
				c0,16.44-13.389,29.831-29.83,29.831h-341.83c-7.969,0-15.461-3.11-21.104-8.753c-5.629-5.644-8.738-13.136-8.726-21.119
				l0.074-56.175h401.416V638L1939.812,638z M1948.691,398.671c-0.758,0.31-1.473,0.672-2.143,1.107
				c-1.809,1.118-3.292,2.604-4.398,4.312c-1.119,1.694-1.877,3.656-2.186,5.757c-0.126,0.8-0.167,1.598-0.154,2.409v140.846
				h-401.377l0.185-140.649c0.014-0.784-0.027-1.582-0.14-2.354c-0.309-2.17-1.106-4.188-2.27-5.938
				c-1.096-1.638-2.521-3.066-4.258-4.159c-0.715-0.449-1.471-0.841-2.258-1.164c-47.067-20.584-77.474-66.94-77.474-118.212
				c0-71.173,57.896-129.068,129.068-129.068c2.78,0,5.718,0.336,8.6,0.564c-14.51,25.217-22.939,54.355-22.939,85.481
				c0,7.927,6.413,14.342,14.341,14.342c7.926,0,14.342-6.415,14.342-14.342c0-79.071,64.337-143.409,143.409-143.409
				c79.07,0,143.407,64.337,143.407,143.409c0,7.927,6.416,14.342,14.341,14.342c7.929,0,14.343-6.415,14.343-14.342
				c0-31.126-8.432-60.264-22.94-85.481c2.882-0.228,5.817-0.564,8.599-0.564c71.176,0,129.069,57.897,129.069,129.068
				C2025.857,331.714,1995.58,378.012,1948.691,398.671z"/>
		</g>
	</g>
</g>
<g>
	<g>
		<path d="M211.574,436.092c-12.45,4.812-25.125,7.224-38.026,7.224c-14.541,0-27.804-2.548-39.797-7.632
			c-11.994-5.086-22.352-12.131-31.075-21.125c-8.723-8.996-15.495-19.764-20.308-32.303c-4.817-12.539-7.223-26.168-7.223-40.888
			c0-14.719,2.406-28.349,7.223-40.888c4.813-12.539,11.585-23.306,20.308-32.302c8.723-8.995,19.124-16.036,31.211-21.125
			c12.083-5.085,25.304-7.633,39.661-7.633c11.994,0,23.668,2.045,35.028,6.133c11.354,4.089,21.031,10.316,29.03,18.672
			l-3.816,4.361c-3.816-3.995-8.135-7.496-12.948-10.495c-4.817-2.999-9.907-5.495-15.265-7.496
			c-5.362-1.998-10.767-3.45-16.219-4.361c-5.452-0.907-10.724-1.363-15.81-1.363c-13.812,0-26.398,2.5-37.753,7.496
			c-11.359,5-21.083,11.857-29.167,20.58c-8.088,8.723-14.358,18.945-18.809,30.666c-4.455,11.721-6.678,24.307-6.678,37.753
			c0,13.451,2.18,26.032,6.542,37.753c4.362,11.722,10.584,21.943,18.672,30.667c8.083,8.723,17.808,15.583,29.167,20.58
			c11.355,5,24.031,7.496,38.026,7.496c11.994,0,23.852-2.317,35.572-6.951c11.722-4.634,21.398-11.585,29.031-20.854l4.361,4.089
			C234.335,423.962,224.02,431.279,211.574,436.092z"/>
		<path d="M422.419,395.477c-2.547,9.541-6.725,17.854-12.539,24.941c-5.818,7.088-13.403,12.676-22.761,16.765
			c-9.362,4.089-20.853,6.133-34.482,6.133s-25.125-2.044-34.482-6.133c-9.362-4.089-16.947-9.677-22.761-16.765
			c-5.818-7.087-9.996-15.4-12.539-24.941c-2.547-9.54-3.816-19.762-3.816-30.666V244.873h5.997V363.72
			c0,7.632,0.771,15.767,2.317,24.397c1.542,8.633,4.723,16.627,9.541,23.986c4.813,7.36,11.627,13.494,20.444,18.4
			c8.812,4.906,20.58,7.36,35.299,7.36c14.354,0,25.938-2.359,34.755-7.088c8.812-4.724,15.673-10.767,20.581-18.127
			c4.906-7.359,8.178-15.354,9.813-23.987c1.635-8.629,2.453-16.943,2.453-24.942V244.873h5.997v119.938
			C426.235,375.714,424.962,385.937,422.419,395.477z"/>
		<path d="M481.296,437.864V244.873h5.997v187.539h95.95v5.452H481.296z"/>
		<path d="M617.04,437.864V244.873h5.997v192.991H617.04z"/>
		<path d="M826.113,437.864L687.638,252.505h-0.817v185.359h-5.997V244.873h8.451l138.746,185.086h0.818V244.873h5.997v192.991
			H826.113z"/>
		<path d="M1033.821,437.864l-22.897-55.335H898.891l-23.715,55.335h-6.542l83.684-192.991h7.632l80.412,192.991H1033.821z
			 M955.861,248.689l-54.79,128.661h107.943L955.861,248.689z"/>
		<path d="M1183.739,437.864l-58.334-97.314h-45.249v97.314h-5.997V244.873h53.428c7.087,0,14.264,0.639,21.533,1.908
			c7.268,1.273,13.766,3.68,19.491,7.223c5.723,3.543,10.4,8.408,14.037,14.583c3.633,6.18,5.452,14.174,5.452,23.988
			c0,9.089-1.729,16.627-5.179,22.625c-3.455,5.997-7.906,10.861-13.357,14.583c-5.452,3.727-11.495,6.406-18.127,8.042
			c-6.635,1.636-13.13,2.454-19.489,2.454l58.605,97.586H1183.739z M1182.104,292.576c0-8.356-1.636-15.308-4.906-20.853
			c-3.271-5.541-7.591-9.903-12.948-13.084c-5.362-3.178-11.542-5.405-18.536-6.679c-6.997-1.27-14.132-1.908-21.396-1.908h-44.16
			v85.32h47.157c17.809,0,31.39-3.723,40.752-11.176C1177.422,316.746,1182.104,306.205,1182.104,292.576z"/>
		<path d="M1281.6,353.362v84.502h-5.997v-84.502l-66.238-108.489h7.086l62.424,102.492l62.148-102.492h6.815L1281.6,353.362z"/>
		<path fill="#F46767" d="M177.365,549.442c-4-5.085-9.226-9.132-15.674-12.13c-6.453-2.999-12.675-4.498-18.672-4.498
			c-3.092,0-6.227,0.272-9.404,0.817c-3.182,0.546-6.044,1.594-8.586,3.136c-2.547,1.546-4.681,3.543-6.406,5.997
			c-1.729,2.452-2.59,5.588-2.59,9.403c0,3.271,0.682,5.997,2.044,8.178c1.363,2.181,3.36,4.089,5.997,5.725
			c2.632,1.635,5.767,3.135,9.404,4.497c3.633,1.363,7.722,2.773,12.267,4.226c6.542,2.182,13.357,4.591,20.444,7.223
			c7.087,2.638,13.536,6.134,19.354,10.496c5.813,4.36,10.63,9.77,14.447,16.218c3.816,6.453,5.724,14.494,5.724,24.125
			c0,11.086-2.044,20.673-6.133,28.757c-4.088,8.089-9.587,14.767-16.491,20.035c-6.908,5.272-14.813,9.179-23.715,11.722
			c-8.906,2.543-18.084,3.815-27.531,3.815c-13.812,0-27.169-2.41-40.07-7.223c-12.905-4.812-23.625-11.675-32.165-20.581
			l30.53-31.073c4.723,5.816,10.946,10.677,18.672,14.582c7.722,3.91,15.401,5.861,23.034,5.861c3.45,0,6.814-0.362,10.086-1.091
			c3.271-0.725,6.133-1.908,8.586-3.544c2.454-1.635,4.404-3.816,5.861-6.542c1.453-2.726,2.181-5.996,2.181-9.812
			c0-3.634-0.911-6.722-2.726-9.269c-1.818-2.543-4.408-4.858-7.769-6.951c-3.364-2.087-7.543-3.995-12.539-5.724
			c-5-1.725-10.678-3.586-17.037-5.588c-6.18-1.998-12.224-4.362-18.126-7.088c-5.908-2.726-11.177-6.222-15.81-10.493
			c-4.634-4.269-8.361-9.448-11.176-15.538c-2.819-6.087-4.225-13.494-4.225-22.216c0-10.721,2.181-19.899,6.542-27.531
			c4.361-7.632,10.085-13.902,17.173-18.809c7.087-4.907,15.081-8.493,23.987-10.768c8.901-2.27,17.897-3.407,26.986-3.407
			c10.903,0,22.032,2.002,33.392,5.997c11.354,4,21.304,9.907,29.848,17.718L177.365,549.442z"/>
		<path fill="#F46767" d="M374.714,688.87c-12.539,5.725-26.986,8.587-43.341,8.587c-14.903,0-28.668-2.453-41.296-7.359
			c-12.633-4.907-23.579-11.858-32.847-20.854c-9.268-8.994-16.539-19.762-21.807-32.3c-5.273-12.54-7.905-26.349-7.905-41.434
			c0-15.444,2.679-29.439,8.042-41.979c5.358-12.539,12.765-23.213,22.216-32.029c9.447-8.812,20.533-15.579,33.255-20.307
			c12.718-4.725,26.441-7.088,41.161-7.088c13.629,0,27.028,2.411,40.207,7.225c13.173,4.816,23.852,11.855,32.029,21.125
			l-31.62,31.619c-4.361-5.997-10.086-10.447-17.173-13.356c-7.087-2.905-14.358-4.362-21.807-4.362
			c-8.178,0-15.674,1.5-22.489,4.499c-6.814,2.997-12.675,7.134-17.582,12.402c-4.907,5.273-8.723,11.495-11.449,18.672
			c-2.726,7.181-4.089,15.039-4.089,23.579c0,8.723,1.363,16.722,4.089,23.987c2.726,7.271,6.495,13.493,11.312,18.673
			c4.812,5.178,10.584,9.225,17.309,12.129c6.721,2.909,14.081,4.362,22.08,4.362c9.268,0,17.352-1.815,24.26-5.451
			c6.904-3.634,12.446-8.357,16.628-14.176l32.438,30.53C397.79,675.377,387.253,683.146,374.714,688.87z"/>
		<path fill="#F46767" d="M548.079,692.277v-80.685h-75.234v80.685h-46.612v-192.99h46.612v73.053h75.234v-73.053h46.612v192.99
			H548.079z"/>
		<path fill="#F46767" d="M835.655,594.964c0,15.266-2.636,29.214-7.905,41.843c-5.273,12.632-12.586,23.442-21.943,32.437
			c-9.362,8.996-20.491,15.947-33.392,20.854c-12.905,4.906-26.896,7.359-41.979,7.359c-15.085,0-29.03-2.453-41.842-7.359
			c-12.812-4.907-23.898-11.858-33.255-20.854c-9.362-8.994-16.675-19.805-21.943-32.437c-5.273-12.629-7.905-26.577-7.905-41.843
			c0-15.443,2.632-29.392,7.905-41.841c5.269-12.445,12.582-23.034,21.943-31.758c9.357-8.722,20.444-15.442,33.255-20.17
			c12.812-4.725,26.756-7.088,41.842-7.088c15.082,0,29.073,2.363,41.979,7.088c12.901,4.728,24.03,11.448,33.392,20.17
			c9.357,8.724,16.67,19.312,21.943,31.758C833.019,565.572,835.655,579.521,835.655,594.964z M785.771,594.964
			c0-8.355-1.363-16.172-4.088-23.441c-2.726-7.268-6.5-13.493-11.312-18.673c-4.817-5.179-10.631-9.268-17.445-12.267
			c-6.815-2.998-14.311-4.497-22.489-4.497c-8.177,0-15.631,1.499-22.352,4.497c-6.725,2.999-12.539,7.088-17.445,12.267
			c-4.907,5.18-8.68,11.405-11.312,18.673c-2.636,7.27-3.953,15.086-3.953,23.441c0,8.724,1.363,16.765,4.089,24.125
			c2.726,7.359,6.495,13.675,11.312,18.944c4.813,5.272,10.584,9.403,17.309,12.402c6.721,2.999,14.175,4.497,22.352,4.497
			c8.178,0,15.627-1.498,22.353-4.497c6.721-2.999,12.539-7.13,17.445-12.402c4.907-5.27,8.723-11.585,11.449-18.944
			C784.409,611.729,785.771,603.688,785.771,594.964z"/>
		<path fill="#F46767" d="M1067.625,594.964c0,15.266-2.635,29.214-7.904,41.843c-5.272,12.632-12.585,23.442-21.943,32.437
			c-9.361,8.996-20.49,15.947-33.392,20.854c-12.905,4.906-26.896,7.359-41.978,7.359c-15.086,0-29.031-2.453-41.842-7.359
			c-12.812-4.907-23.898-11.858-33.256-20.854c-9.362-8.994-16.675-19.805-21.943-32.437c-5.273-12.629-7.905-26.577-7.905-41.843
			c0-15.443,2.632-29.392,7.905-41.841c5.268-12.445,12.581-23.034,21.943-31.758c9.357-8.722,20.444-15.442,33.256-20.17
			c12.811-4.725,26.756-7.088,41.842-7.088c15.082,0,29.073,2.363,41.978,7.088c12.901,4.728,24.03,11.448,33.392,20.17
			c9.358,8.724,16.671,19.312,21.943,31.758C1064.989,565.572,1067.625,579.521,1067.625,594.964z M1017.742,594.964
			c0-8.355-1.363-16.172-4.089-23.441c-2.726-7.268-6.5-13.493-11.312-18.673c-4.816-5.179-10.63-9.268-17.445-12.267
			c-6.815-2.998-14.311-4.497-22.488-4.497c-8.178,0-15.631,1.499-22.353,4.497c-6.725,2.999-12.539,7.088-17.445,12.267
			c-4.907,5.18-8.68,11.405-11.312,18.673c-2.636,7.27-3.952,15.086-3.952,23.441c0,8.724,1.363,16.765,4.088,24.125
			c2.726,7.359,6.496,13.675,11.312,18.944c4.813,5.272,10.584,9.403,17.309,12.402c6.721,2.999,14.175,4.497,22.353,4.497
			c8.177,0,15.626-1.498,22.352-4.497c6.721-2.999,12.539-7.13,17.445-12.402c4.907-5.27,8.723-11.585,11.449-18.944
			C1016.379,611.729,1017.742,603.688,1017.742,594.964z"/>
		<path fill="#F46767" d="M1098.428,692.277v-192.99h46.884v152.375h74.689v40.615H1098.428z"/>
	</g>
</g>
</svg>
